<?xml version="1.0" encoding="UTF-8" standalone="no"?>
<!-- Created with Inkscape (http://www.inkscape.org/) -->

<svg
   width="220mm"
   height="90mm"
   viewBox="0 0 220 90"
   version="1.1"
   id="svg1"
   xml:space="preserve"
   inkscape:version="1.3.2 (091e20e, 2023-11-25, custom)"
   sodipodi:docname="MIDDS_Logo2.svg"
   inkscape:export-filename="MIDDS_Logo2.png"
   inkscape:export-xdpi="96.350021"
   inkscape:export-ydpi="96.350021"
   xmlns:inkscape="http://www.inkscape.org/namespaces/inkscape"
   xmlns:sodipodi="http://sodipodi.sourceforge.net/DTD/sodipodi-0.dtd"
   xmlns="http://www.w3.org/2000/svg"
   xmlns:svg="http://www.w3.org/2000/svg"><sodipodi:namedview
     id="namedview1"
     pagecolor="#ffffff"
     bordercolor="#000000"
     borderopacity="0.25"
     inkscape:showpageshadow="2"
     inkscape:pageopacity="0.0"
     inkscape:pagecheckerboard="0"
     inkscape:deskcolor="#d1d1d1"
     inkscape:document-units="mm"
     inkscape:zoom="1.4485269"
     inkscape:cx="375.89912"
     inkscape:cy="198.4775"
     inkscape:window-width="1920"
     inkscape:window-height="1009"
     inkscape:window-x="-8"
     inkscape:window-y="-8"
     inkscape:window-maximized="1"
     inkscape:current-layer="layer1"
     inkscape:export-bgcolor="#ffffffff" /><defs
     id="defs1"><rect
       x="401.09714"
       y="283.04617"
       width="390.05142"
       height="36.588894"
       id="rect127" /><marker
       id="DistanceX"
       orient="auto"
       refX="0"
       refY="0"
       style="overflow:visible"><path
         d="M 3,-3 -3,3 M 0,-5 V 5"
         style="stroke:#000000;stroke-width:0.5"
         id="path1" /></marker><pattern
       id="Hatch"
       patternUnits="userSpaceOnUse"
       width="8"
       height="8"
       x="0"
       y="0"><path
         d="M8 4 l-4,4"
         stroke="#000000"
         stroke-width="0.25"
         linecap="square"
         id="path2" /><path
         d="M6 2 l-4,4"
         stroke="#000000"
         stroke-width="0.25"
         linecap="square"
         id="path3" /><path
         d="M4 0 l-4,4"
         stroke="#000000"
         stroke-width="0.25"
         linecap="square"
         id="path4" /></pattern><symbol
       id="*Model_Space" /><symbol
       id="*Paper_Space" /><symbol
       id="*Paper_Space0" /><rect
       x="12.084542"
       y="610.94073"
       width="766.45599"
       height="51.544029"
       id="rect145" /></defs><g
     inkscape:label="Capa 1"
     inkscape:groupmode="layer"
     id="layer1"
     transform="translate(-15.605206,-128.01378)"><g
       id="g1"
       transform="matrix(1.2902074,0,0,1.2902074,22.883916,-1267.1857)"><g
         id="g2"
         transform="matrix(1.0795163,0,0,1.0795163,2.6902072,-82.691394)"><g
           inkscape:label="Logo"
           id="g116"><path
             d="m 135.90502,1122.5197 a 6.614173,6.614173 0 0 0 6.61418,-6.6142"
             style="fill:none;stroke:#000000;stroke-linecap:round"
             id="path5" /><path
             d="m 130.23573,1093.7008 a 3.0708665,3.0708665 0 0 0 0,6.1417"
             style="fill:none;stroke:#000000;stroke-linecap:round"
             id="path6" /><path
             d="m 122.67668,1111.1811 a 4.724409,4.724409 0 0 0 -3.77953,1.8898"
             style="fill:none;stroke:#000000;stroke-linecap:round"
             id="path7" /><path
             d="m 130.23573,1113.5433 a 3.070866,3.070866 0 0 0 0,-6.1417"
             style="fill:none;stroke:#000000;stroke-linecap:round"
             id="path8" /><path
             d="m 124.56644,1084.7244 a 6.614173,6.614173 0 0 0 -6.61417,6.6142"
             style="fill:none;stroke:#000000;stroke-linecap:round"
             id="path9" /><path
             d="m 142.5192,1091.3386 a 6.614173,6.614173 0 0 0 -6.61418,-6.6142"
             style="fill:none;stroke:#000000;stroke-linecap:round"
             id="path10" /><path
             d="m 74.4877,1115.9055 a 4.724409,4.724409 0 0 0 4.724409,-4.7244"
             style="fill:none;stroke:#000000;stroke-linecap:round"
             id="path11" /><path
             d="M 79.212109,1096.063 A 4.724409,4.724409 0 0 0 74.4877,1091.3386"
             style="fill:none;stroke:#000000;stroke-linecap:round"
             id="path12" /><path
             d="M 85.826283,1096.063 A 11.338583,11.338583 0 0 0 74.4877,1084.7244"
             style="fill:none;stroke:#000000;stroke-linecap:round"
             id="path13" /><path
             d="m 74.4877,1122.5197 a 11.338583,11.338583 0 0 0 11.338583,-11.3386"
             style="fill:none;stroke:#000000;stroke-linecap:round"
             id="path14" /><path
             d="m 102.83416,1122.5197 a 11.338583,11.338583 0 0 0 9.64638,-5.3795"
             style="fill:none;stroke:#000000;stroke-linecap:round"
             id="path15" /><path
             d="m 114.17274,1096.063 a 11.338583,11.338583 0 0 0 -11.33858,-11.3386"
             style="fill:none;stroke:#000000;stroke-linecap:round"
             id="path16" /><path
             d="m 102.83416,1115.9055 a 4.724409,4.724409 0 0 0 4.72441,-4.7244"
             style="fill:none;stroke:#000000;stroke-linecap:round"
             id="path17" /><path
             d="m 107.55857,1096.063 a 4.724409,4.724409 0 0 0 -4.72441,-4.7244"
             style="fill:none;stroke:#000000;stroke-linecap:round"
             id="path18" /><path
             d="m 114.12564,1120.4304 a 3.779528,3.779528 0 0 0 3.38051,2.0893"
             style="fill:none;stroke:#000000;stroke-linecap:round"
             id="path19" /><path
             d="m 57.925939,1122.5197 a 3.779528,3.779528 0 0 0 3.380512,-2.0893"
             style="fill:none;stroke:#000000;stroke-linecap:round"
             id="path20" /><path
             d="m 57.479826,1086.6142 a 1.889764,1.889764 0 0 0 -1.889764,-1.8898"
             style="fill:none;stroke:#000000;stroke-linecap:round"
             id="path21" /><path
             d="m 55.590062,1091.3386 a 1.889764,1.889764 0 0 0 1.889764,-1.8898"
             style="fill:none;stroke:#000000;stroke-linecap:round"
             id="path22" /><path
             d="m 45.249018,1089.4488 a 1.889764,1.889764 0 0 0 1.889764,1.8898"
             style="fill:none;stroke:#000000;stroke-linecap:round"
             id="path23" /><path
             d="m 47.138782,1084.7244 a 1.889764,1.889764 0 0 0 -1.889764,1.8898"
             style="fill:none;stroke:#000000;stroke-linecap:round"
             id="path24" /><path
             d="m 98.109747,1091.3386 a 1.889764,1.889764 0 0 0 -1.889764,1.8897"
             style="fill:none;stroke:#000000;stroke-linecap:round"
             id="path25" /><path
             d="m 69.76329,1091.3386 a 1.889764,1.889764 0 0 0 -1.889763,1.8897"
             style="fill:none;stroke:#000000;stroke-linecap:round"
             id="path26" /><path
             d="m 91.495574,1084.7244 a 1.889764,1.889764 0 0 0 -1.889764,1.8898"
             style="fill:none;stroke:#000000;stroke-linecap:round"
             id="path27" /><path
             d="m 63.149117,1084.7244 a 1.889764,1.889764 0 0 0 -1.889764,1.8898"
             style="fill:none;stroke:#000000;stroke-linecap:round"
             id="path28" /><path
             d="m 46.416956,1096.063 a 1.889764,1.889764 0 0 0 -1.690256,1.0446"
             style="fill:none;stroke:#000000;stroke-linecap:round"
             id="path29" /><path
             d="m 30.130908,1120.6299 a 1.889764,1.889764 0 0 0 1.889763,1.8898"
             style="fill:none;stroke:#000000;stroke-linecap:round"
             id="path30" /><path
             d="M 28.516857,1084.7244 A 1.889764,1.889764 0 0 0 26.8266,1085.769"
             style="fill:none;stroke:#000000;stroke-linecap:round"
             id="path31" /><path
             d="m 7.559055,1084.7244 a 1.889764,1.889764 0 0 0 -1.889764,1.8898"
             style="fill:none;stroke:#000000;stroke-linecap:round"
             id="path32" /><path
             d="m 3.779528,1115.9055 a 1.889764,1.889764 0 0 0 1.889763,-1.8898"
             style="fill:none;stroke:#000000;stroke-linecap:round"
             id="path33" /><path
             d="m 142.5192,1111.1811 a 11.338583,5.669291 -90 0 0 -5.6693,-11.3386"
             style="fill:none;stroke:#000000;stroke-linecap:round"
             id="path34" /><path
             d="m 117.95227,1096.063 a 11.338583,5.669291 90 0 0 5.66929,11.3386"
             style="fill:none;stroke:#000000;stroke-linecap:round"
             id="path35" /><path
             style="fill:none;stroke:#000000;stroke-linecap:round"
             d="m 5.66929,1114.02 v -27.41"
             id="path36" /><path
             style="fill:none;stroke:#000000;stroke-linecap:round"
             d="M 7.55905,1084.72 H 16.0103"
             id="path37" /><path
             style="fill:none;stroke:#000000;stroke-linecap:round"
             d="m 16.0103,1084.72 5.6693,11.34"
             id="path38" /><path
             style="fill:none;stroke:#000000;stroke-linecap:round"
             d="m 21.6796,1096.06 5.147,-10.29"
             id="path39" /><path
             style="fill:none;stroke:#000000;stroke-linecap:round"
             d="M 28.5169,1084.72 H 37.69"
             id="path40" /><path
             style="fill:none;stroke:#000000;stroke-linecap:round"
             d="m 37.69,1084.72 v 31.19"
             id="path41" /><path
             style="fill:none;stroke:#000000;stroke-linecap:round"
             d="M 5.66929,1122.52 H 13.2283"
             id="path42" /><path
             style="fill:none;stroke:#000000;stroke-linecap:round"
             d="m 13.2283,1122.52 v -26.46"
             id="path43" /><path
             style="fill:none;stroke:#000000;stroke-linecap:round"
             d="m 13.2283,1096.06 5.6693,11.34"
             id="path44" /><path
             style="fill:none;stroke:#000000;stroke-linecap:round"
             d="m 18.8976,1107.4 h 5.564"
             id="path45" /><path
             style="fill:none;stroke:#000000;stroke-linecap:round"
             d="m 24.4616,1107.4 5.6693,-11.34"
             id="path46" /><path
             style="fill:none;stroke:#000000;stroke-linecap:round"
             d="m 30.1309,1096.06 v 24.57"
             id="path47" /><path
             style="fill:none;stroke:#000000;stroke-linecap:round"
             d="M 32.0207,1122.52 H 40.472"
             id="path48" /><path
             style="fill:none;stroke:#000000;stroke-linecap:round"
             d="m 40.472,1122.52 9.4488,-18.9"
             id="path49" /><path
             style="fill:none;stroke:#000000;stroke-linecap:round"
             d="m 49.9208,1103.62 v 17.01"
             id="path50" /><path
             style="fill:none;stroke:#000000;stroke-linecap:round"
             d="m 51.8105,1122.52 h 6.1154"
             id="path51" /><path
             style="fill:none;stroke:#000000;stroke-linecap:round"
             d="m 61.3065,1120.43 8.4041,-16.81"
             id="path52" /><path
             style="fill:none;stroke:#000000;stroke-linecap:round"
             d="m 69.7106,1103.62 h 9.5015"
             id="path53" /><path
             style="fill:none;stroke:#000000;stroke-linecap:round"
             d="m 105.721,1103.62 8.405,16.81"
             id="path54" /><path
             style="fill:none;stroke:#000000;stroke-linecap:round"
             d="m 117.506,1122.52 h 18.399"
             id="path55" /><path
             style="fill:none;stroke:#000000;stroke-linecap:round"
             d="m 142.519,1115.91 v -4.73"
             id="path56" /><path
             style="fill:none;stroke:#000000;stroke-linecap:round"
             d="m 130.236,1099.84 h 6.614"
             id="path57" /><path
             style="fill:none;stroke:#000000;stroke-linecap:round"
             d="M 5.66929,1122.52 H 0"
             id="path58" /><path
             style="fill:none;stroke:#000000;stroke-linecap:round"
             d="m 0,1115.91 v 6.61"
             id="path59" /><path
             style="fill:none;stroke:#000000;stroke-linecap:round"
             d="M 3.77953,1115.91 H 0"
             id="path60" /><path
             style="fill:none;stroke:#000000;stroke-linecap:round"
             d="m 37.69,1111.18 7.0367,-14.07"
             id="path61" /><path
             style="fill:none;stroke:#000000;stroke-linecap:round"
             d="M 46.417,1096.06 H 57.4798"
             id="path62" /><path
             style="fill:none;stroke:#000000;stroke-linecap:round"
             d="m 57.4798,1096.06 v 15.12"
             id="path63" /><path
             style="fill:none;stroke:#000000;stroke-linecap:round"
             d="m 57.4798,1111.18 7.5591,-15.12"
             id="path64" /><path
             style="fill:none;stroke:#000000;stroke-linecap:round"
             d="M 65.0389,1096.06 H 79.2121"
             id="path65" /><path
             style="fill:none;stroke:#000000;stroke-linecap:round"
             d="m 110.393,1096.06 7.559,15.12"
             id="path66" /><path
             style="fill:none;stroke:#000000;stroke-linecap:round"
             d="m 117.952,1111.18 0.945,1.89"
             id="path67" /><path
             style="fill:none;stroke:#000000;stroke-linecap:round"
             d="m 57.4798,1111.18 -2.3622,4.73"
             id="path68" /><path
             style="fill:none;stroke:#000000;stroke-linecap:round"
             d="m 130.236,1111.18 v 2.36"
             id="path69" /><path
             style="fill:none;stroke:#000000;stroke-linecap:round"
             d="m 123.622,1111.18 h 6.614"
             id="path70" /><path
             style="fill:none;stroke:#000000;stroke-linecap:round"
             d="m 122.677,1111.18 h 0.945"
             id="path71" /><path
             style="fill:none;stroke:#000000;stroke-linecap:round"
             d="m 130.236,1096.06 v -2.36"
             id="path72" /><path
             style="fill:none;stroke:#000000;stroke-linecap:round"
             d="m 123.622,1107.4 h 6.614"
             id="path73" /><path
             style="fill:none;stroke:#000000;stroke-linecap:round"
             d="m 117.952,1096.06 v -4.72"
             id="path74" /><path
             style="fill:none;stroke:#000000;stroke-linecap:round"
             d="m 124.566,1084.72 h 11.339"
             id="path75" /><path
             style="fill:none;stroke:#000000;stroke-linecap:round"
             d="m 142.519,1091.34 v 4.72"
             id="path76" /><path
             style="fill:none;stroke:#000000;stroke-linecap:round"
             d="M 142.519,1096.06 H 130.236"
             id="path77" /><path
             style="fill:none;stroke:#000000;stroke-linecap:round"
             d="m 47.1388,1084.72 h 8.4513"
             id="path78" /><path
             style="fill:none;stroke:#000000;stroke-linecap:round"
             d="m 57.4798,1086.61 v 2.84"
             id="path79" /><path
             style="fill:none;stroke:#000000;stroke-linecap:round"
             d="m 47.1388,1091.34 h 8.4513"
             id="path80" /><path
             style="fill:none;stroke:#000000;stroke-linecap:round"
             d="m 45.249,1086.61 v 2.84"
             id="path81" /><path
             style="fill:none;stroke:#000000;stroke-linecap:round"
             d="m 69.7633,1091.34 h 4.7244"
             id="path82" /><path
             style="fill:none;stroke:#000000;stroke-linecap:round"
             d="m 67.8735,1093.23 v 2.83"
             id="path83" /><path
             style="fill:none;stroke:#000000;stroke-linecap:round"
             d="m 67.8735,1115.91 h 6.6142"
             id="path84" /><path
             style="fill:none;stroke:#000000;stroke-linecap:round"
             d="m 79.2121,1096.06 v 15.12"
             id="path85" /><path
             style="fill:none;stroke:#000000;stroke-linecap:round"
             d="m 61.2594,1086.61 v 17.01"
             id="path86" /><path
             style="fill:none;stroke:#000000;stroke-linecap:round"
             d="M 63.1491,1084.72 H 74.4877"
             id="path87" /><path
             style="fill:none;stroke:#000000;stroke-linecap:round"
             d="m 85.8263,1111.18 v -15.12"
             id="path88" /><path
             style="fill:none;stroke:#000000;stroke-linecap:round"
             d="M 61.2594,1122.52 H 74.4877"
             id="path89" /><path
             style="fill:none;stroke:#000000;stroke-linecap:round"
             d="m 114.173,1096.06 v 7.56"
             id="path90" /><path
             style="fill:none;stroke:#000000;stroke-linecap:round"
             d="M 89.6058,1122.52 H 102.834"
             id="path91" /><path
             style="fill:none;stroke:#000000;stroke-linecap:round"
             d="m 89.6058,1086.61 v 35.91"
             id="path92" /><path
             style="fill:none;stroke:#000000;stroke-linecap:round"
             d="M 91.4956,1084.72 H 102.834"
             id="path93" /><path
             style="fill:none;stroke:#000000;stroke-linecap:round"
             d="m 98.1097,1091.34 h 4.7243"
             id="path94" /><path
             style="fill:none;stroke:#000000;stroke-linecap:round"
             d="m 96.22,1093.23 v 22.68"
             id="path95" /><path
             style="fill:none;stroke:#000000;stroke-linecap:round"
             d="M 102.834,1115.91 H 96.22"
             id="path96" /><path
             style="fill:none;stroke:#000000;stroke-linecap:round"
             d="m 107.559,1107.3 v 3.88"
             id="path97" /><path
             style="fill:none;stroke:#000000;stroke-linecap:round"
             d="m 61.2594,1120.52 v 2"
             id="path98" /><path
             style="fill:none;stroke:#000000;stroke-linecap:round"
             d="m 67.8735,1107.3 v 8.61"
             id="path99" /><path
             style="fill:none;stroke:#000000;stroke-linecap:round"
             d="m 85.8263,1096.06 h 3.7795"
             id="path100" /><path
             style="fill:none;stroke:#000000;stroke-linecap:round"
             d="m 85.8263,1103.62 h 3.7795"
             id="path101" /><path
             style="fill:none;stroke:#000000;stroke-linecap:round"
             d="m 96.22,1103.62 h 9.501"
             id="path102" /><path
             style="fill:none;stroke:#000000;stroke-linecap:round"
             d="m 96.22,1096.06 h 14.173"
             id="path103" /><path
             style="fill:none;stroke:#000000;stroke-linecap:round"
             d="m 118.897,1113.07 1.417,2.84"
             id="path104" /><path
             d="m 49.920771,1120.6299 a 1.889764,1.889764 0 0 0 1.889764,1.8898"
             style="fill:none;stroke:#000000;stroke-linecap:round"
             id="path105" /></g><g
           id="layer3"
           inkscape:label="Decals"
           transform="matrix(0.77506919,0,0,0.77506919,-10.122665,988.52223)"
           style="stroke-width:0.5;stroke-dasharray:none"><path
             d="M 79.212109,1099.8425 H 67.374757 l -9.685039,19.3701 h -3.98942 v -15.5906 -3.7795 h -6.115404 l -6.514419,13.0289 -3.17062,6.3412"
             style="fill:none;stroke:#000000;stroke-width:0.387535;stroke-dasharray:3.87535, 1.55014, 0.387535, 1.55014;stroke-dashoffset:0.426288"
             id="path112"
             transform="matrix(1.2902074,0,0,1.2902074,13.060337,-1275.3987)" /><path
             d="M 85.826283,1099.8425 H 89.60581"
             style="fill:none;stroke:#000000;stroke-width:0.387535;stroke-dasharray:3.87535, 1.55014, 0.387535, 1.55014;stroke-dashoffset:0"
             id="path110"
             transform="matrix(1.2902074,0,0,1.2902074,13.060337,-1275.3987)" /><path
             d="m 96.219983,1099.8425 h 11.837347 l 9.68504,19.3701"
             style="fill:none;stroke:#000000;stroke-width:0.387535;stroke-dasharray:3.87535, 1.55014, 0.387535, 1.55014;stroke-dashoffset:0"
             id="path111"
             transform="matrix(1.2902074,0,0,1.2902074,13.060337,-1275.3987)" /><path
             style="fill:none;stroke:#000000;stroke-width:0.387535;stroke-dasharray:none;stroke-dashoffset:0"
             d="M 63.8813,1108.72 H 61.9916"
             id="path106"
             transform="matrix(1.2902074,0,0,1.2902074,13.060337,-1275.3987)" /><path
             style="fill:none;stroke:#000000;stroke-width:0.387535;stroke-dasharray:none;stroke-dashoffset:0"
             d="m 62.9364,1107.77 v 1.89"
             id="path107"
             transform="matrix(1.2902074,0,0,1.2902074,13.060337,-1275.3987)" /><path
             style="fill:none;stroke:#000000;stroke-width:0.387535;stroke-dasharray:none;stroke-dashoffset:0"
             d="m 113.441,1108.72 h -1.89"
             id="path108"
             transform="matrix(1.2902074,0,0,1.2902074,13.060337,-1275.3987)" /><path
             style="fill:none;stroke:#000000;stroke-width:0.387535;stroke-dasharray:none;stroke-dashoffset:0"
             d="m 112.496,1107.77 v 1.89"
             id="path109"
             transform="matrix(1.2902074,0,0,1.2902074,13.060337,-1275.3987)" /><path
             style="fill:none;stroke:#000000;stroke-width:0.387535;stroke-dasharray:none;stroke-dashoffset:0"
             d="M 54.6452,1108.72 H 52.7554"
             id="path113"
             transform="matrix(1.2902074,0,0,1.2902074,13.060337,-1275.3987)" /><path
             style="fill:none;stroke:#000000;stroke-width:0.387535;stroke-dasharray:none;stroke-dashoffset:0"
             d="m 53.7003,1107.77 v 1.89"
             id="path114"
             transform="matrix(1.2902074,0,0,1.2902074,13.060337,-1275.3987)" /><path
             style="fill:none;stroke:#000000;stroke-width:0.387535;stroke-dasharray:none;stroke-dashoffset:0"
             d="M 44.0915,1108.72 H 42.2017"
             id="path115"
             transform="matrix(1.2902074,0,0,1.2902074,13.060337,-1275.3987)" /><path
             style="fill:none;stroke:#000000;stroke-width:0.387535;stroke-dasharray:none;stroke-dashoffset:0"
             d="m 43.1466,1107.77 v 1.89"
             id="path116"
             transform="matrix(1.2902074,0,0,1.2902074,13.060337,-1275.3987)" /></g></g><g
         inkscape:label="Defpoints"
         id="g117" /><text
         xml:space="preserve"
         transform="matrix(0.2050704,0,0,0.2050704,-0.92068018,1005.3012)"
         id="text145"
         style="font-size:29.3333px;font-family:'Agency FB';-inkscape-font-specification:'Agency FB';text-align:justify;white-space:pre;shape-inside:url(#rect145);display:inline;fill:#000000;stroke:#000000;stroke-width:1.88976;stroke-linecap:round;stroke-dasharray:none;stroke-dashoffset:0;stroke-opacity:1"
         x="0"
         y="0"
         inkscape:label="text145"><tspan
           x="12.083984"
           y="638.34468"
           id="tspan3"><tspan
             style="font-weight:600;font-family:Poppins;-inkscape-font-specification:'Poppins Semi-Bold';stroke:none;stroke-linecap:butt"
             id="tspan1">Monitoring Interface of Digital &amp; Differential Signals</tspan></tspan></text><text
         xml:space="preserve"
         transform="matrix(0.20507039,0,0,0.20507039,-4.7888567,1080.5685)"
         id="text127"
         style="font-weight:600;font-size:29.3333px;line-height:1;font-family:Poppins;-inkscape-font-specification:'Poppins Semi-Bold';text-align:end;white-space:pre;shape-inside:url(#rect127);display:inline;fill:#999999;fill-opacity:1;stroke:none;stroke-width:1.88976;stroke-dasharray:18.8976, 7.55905, 1.88976, 7.55905;stroke-dashoffset:2.07874"
         x="0"
         y="0"><tspan
           x="429.64487"
           y="305.04685"
           id="tspan5"><tspan
             style="fill:#000000"
             id="tspan4">Designed by @dabecart</tspan></tspan></text></g><g
       inkscape:groupmode="layer"
       id="layer4"
       inkscape:label="Layer 1" /></g></svg>
